<svg xmlns="http://www.w3.org/2000/svg" width="59" height="58"><defs><clipPath id="a"><path data-name="Rectangle 1463" fill="#c00020" d="M0 0h22.834v22.888H0z"/></clipPath></defs><g data-name="Group 3234" transform="translate(.029 -.071)"><ellipse data-name="Ellipse 54" cx="29.5" cy="29" rx="29.5" ry="29" transform="translate(-.029 .071)" fill="#ffe500"/><g data-name="Group 3233"><g data-name="Group 3232" clip-path="url(#a)" fill="#c00020" transform="translate(17.849 17.708)"><path data-name="Path 1937" d="M14.877 22.888H7.993c-.14-.012-.28-.032-.42-.036a12.726 12.726 0 0 1-2.726-.279 5.859 5.859 0 0 1-4.117-3.3 8.254 8.254 0 0 1-.69-3.5c-.025-2.457-.053-4.914-.033-7.37a22.719 22.719 0 0 1 .224-3.13 5.8 5.8 0 0 1 2.32-3.909A6.948 6.948 0 0 1 6.346.091C6.894.052 7.444.03 7.993 0h6.84c.534.03 1.068.058 1.6.089a7.618 7.618 0 0 1 2.707.6 5.964 5.964 0 0 1 3.56 4.869c.061.395.092.794.136 1.192v9.209c-.012.08-.028.159-.037.24-.048.45-.071.9-.147 1.351a6.079 6.079 0 0 1-1.96 3.66A6.752 6.752 0 0 1 16.5 22.8c-.54.037-1.082.061-1.623.09m-3.44-2.023v-.035c.6 0 1.208.018 1.81 0 1.294-.046 2.595-.047 3.879-.187a3.778 3.778 0 0 0 3.4-3 10.448 10.448 0 0 0 .242-2.168q.062-3.184.039-6.369a30.23 30.23 0 0 0-.175-3.321 3.79 3.79 0 0 0-3.187-3.447 13.464 13.464 0 0 0-2.419-.218q-3.218-.047-6.436-.01a22.448 22.448 0 0 0-2.984.188 3.756 3.756 0 0 0-3.284 3.112A12.769 12.769 0 0 0 2.1 7.7a169.3 169.3 0 0 0-.033 5.52c.014 1.287.047 2.579.172 3.858a3.784 3.784 0 0 0 1.909 3.04 4.936 4.936 0 0 0 2.351.625c1.645.058 3.291.086 4.936.127"/><path data-name="Path 1938" d="M18.912 5.345a1.369 1.369 0 1 1-1.369-1.378 1.364 1.364 0 0 1 1.369 1.378"/><path data-name="Path 1939" d="M11.407 15.256a3.809 3.809 0 1 1 3.831-3.782 3.8 3.8 0 0 1-3.831 3.782"/></g></g></g></svg>